name C:\Users\u0101727\Documents\MyRepositories\upper-imu-dc\Results\main_tracking\Case_49\kinematics.mot
datacolumns 10
datarows 42
range 3.70000000 4.11000000
endheader 
time	clav_prot	clav_elev	scapula_abduction	scapula_elevation	scapula_upward_rot	scapula_winging	plane_elv	shoulder_elv	axial_rot	
          3.70000000	        -44.05793926	          8.53514563	          0.24585225	         -2.15755566	         82.41320762	        -11.72938753	         31.22260170	         89.39627208	         -6.93754912	
          3.71000000	        -44.04597975	          8.53664171	          0.26084346	         -2.15627156	         82.40677500	        -11.72325181	         31.24423917	         89.41426584	         -6.91920440	
          3.72000000	        -44.03354849	          8.53810336	          0.27602947	         -2.15506293	         82.39954144	        -11.71694164	         31.26516539	         89.43239333	         -6.89624320	
          3.73000000	        -44.02068734	          8.53957949	          0.29138342	         -2.15389159	         82.39158001	        -11.71048513	         31.28558201	         89.45048784	         -6.86898058	
          3.74000000	        -44.00747336	          8.54109586	          0.30683243	         -2.15273683	         82.38297432	        -11.70392473	         31.30570680	         89.46836867	         -6.83782296	
          3.75000000	        -43.99402367	          8.54265785	          0.32224766	         -2.15159412	         82.37381727	        -11.69732113	         31.32577383	         89.48583960	         -6.80322943	
          3.76000000	        -43.98049927	          8.54425394	          0.33743551	         -2.15047327	         82.36420909	        -11.69075692	         31.34603183	         89.50268871	         -6.76566995	
          3.77000000	        -43.96710588	          8.54585804	          0.35213349	         -2.14939724	         82.35425466	        -11.68433812	         31.36674006	         89.51869043	         -6.72558556	
          3.78000000	        -43.95409079	          8.54742962	          0.36601344	         -2.14840217	         82.34406081	        -11.67819261	         31.38816072	         89.53361012	         -6.68335660	
          3.79000000	        -43.94173487	          8.54891127	          0.37869359	         -2.14753854	         82.33373362	        -11.67246480	         31.41054763	         89.54721132	         -6.63928521	
          3.80000000	        -43.93033942	          8.55022455	          0.38976029	         -2.14687327	         82.32337626	        -11.66730656	         31.43413100	         89.55926574	         -6.59359605	
          3.81000000	        -43.92020813	          8.55126505	          0.39879848	         -2.14649166	         82.31308716	        -11.66286484	         31.45909895	         89.56956570	         -6.54645496	
          3.82000000	        -43.91162500	          8.55189879	          0.40542912	         -2.14649818	         82.30295868	        -11.65926699	         31.48557703	         89.57793797	         -6.49800027	
          3.83000000	        -43.90483045	          8.55196113	          0.40934945	         -2.14701523	         82.29307621	        -11.65660569	         31.51360854	         89.58425765	         -6.44837825	
          3.84000000	        -43.89999850	          8.55126030	          0.41037052	         -2.14817893	         82.28351755	        -11.65492565	         31.54313866	         89.58845980	         -6.39777376	
          3.85000000	        -43.89721859	          8.54958654	          0.40844587	         -2.15013131	         82.27435291	        -11.65421468	         31.57400558	         89.59054675	         -6.34642924	
          3.86000000	        -43.89648475	          8.54672750	          0.40368666	         -2.15300892	         82.26564549	        -11.65440093	         31.60594019	         89.59058973	         -6.29464890	
          3.87000000	        -43.89769336	          8.54248878	          0.39636098	         -2.15692855	         82.25745225	        -11.65535683	         31.63857468	         89.58872463	         -6.24278861	
          3.88000000	        -43.90064891	          8.53671635	          0.38687896	         -2.16197248	         82.24982445	        -11.65690856	         31.67145910	         89.58514326	         -6.19123510	
          3.89000000	        -43.90507603	          8.52931664	          0.37576708	         -2.16817582	         82.24280757	        -11.65884900	         31.70408431	         89.58008163	         -6.14038078	
          3.90000000	        -43.91063618	          8.52027012	          0.36363580	         -2.17551886	         82.23644047	        -11.66095200	         31.73590946	         89.57380704	         -6.09060128	
          3.91000000	        -43.91694751	          8.50963630	          0.35114319	         -2.18392548	         82.23075378	        -11.66298653	         31.76639238	         89.56660543	         -6.04224136	
          3.92000000	        -43.92360651	          8.49754979	          0.33895707	         -2.19326804	         82.22576742	        -11.66472977	         31.79502079	         89.55876998	         -5.99561061	
          3.93000000	        -43.93021028	          8.48420916	          0.32771769	         -2.20337707	         82.22148763	        -11.66597880	         31.82134235	         89.55059108	         -5.95098696	
          3.94000000	        -43.93637810	          8.46986130	          0.31800258	         -2.21405407	         82.21790405	        -11.66656066	         31.84499148	         89.54234772	         -5.90862422	
          3.95000000	        -43.94177155	          8.45478478	          0.31029519	         -2.22508479	         82.21498775	        -11.66634101	         31.86571117	         89.53429967	         -5.86875996	
          3.96000000	        -43.94611198	          8.43927468	          0.30495842	         -2.23625093	         82.21269048	        -11.66523135	         31.88336836	         89.52668035	         -5.83162140	
          3.97000000	        -43.94919447	          8.42363073	          0.30221474	         -2.24733936	         82.21094570	        -11.66319454	         31.89796223	         89.51969045	         -5.79742761	
          3.98000000	        -43.95089720	          8.40814871	          0.30213448	         -2.25814839	         82.20967106	        -11.66024801	         31.90962492	         89.51349250	         -5.76638702	
          3.99000000	        -43.95118543	          8.39311445	          0.30463400	         -2.26849165	         82.20877278	        -11.65646388	         31.91861468	         89.50820666	         -5.73869002	
          4.00000000	        -43.95010940	          8.37879875	          0.30948537	         -2.27820070	         82.20815185	        -11.65196513	         31.92530102	         89.50390786	         -5.71449626	
          4.01000000	        -43.94779589	          8.36545148	          0.31633807	         -2.28712736	         82.20771185	        -11.64691727	         31.93014268	         89.50062483	         -5.69391786	
          4.02000000	        -43.94443398	          8.35329409	          0.32475186	         -2.29514670	         82.20736778	        -11.64151564	         31.93365910	         89.49834143	         -5.67700038	
          4.03000000	        -43.94025651	          8.34251065	          0.33423707	         -2.30216047	         82.20705484	        -11.63596967	         31.93639824	         89.49700059	         -5.66370520	
          4.04000000	        -43.93551972	          8.33323933	          0.34429673	         -2.30810046	         82.20673577	        -11.63048633	         31.93890413	         89.49651070	         -5.65389718	
          4.05000000	        -43.93048410	          8.32556596	          0.35446411	         -2.31293070	         82.20640523	        -11.62525545	         31.94168804	         89.49675416	         -5.64734143	
          4.06000000	        -43.92539851	          8.31952126	          0.36433055	         -2.31664803	         82.20609044	        -11.62043876	         31.94520599	         89.49759746	         -5.64371141	
          4.07000000	        -43.92048899	          8.31508224	          0.37356186	         -2.31928050	         82.20584804	        -11.61616369	         31.94984353	         89.49890206	         -5.64260833	
          4.08000000	        -43.91595176	          8.31217757	          0.38190414	         -2.32088392	         82.20575807	        -11.61252148	         31.95590694	         89.50053507	         -5.64358940	
          4.09000000	        -43.91195014	          8.31069595	          0.38918128	         -2.32153666	         82.20591657	        -11.60956880	         31.96361969	         89.50237841	         -5.64620144	
          4.10000000	        -43.90861459	          8.31049659	          0.39528642	         -2.32133346	         82.20642788	        -11.60733197	         31.97312285	         89.50433524	         -5.65001574	
          4.11000000	        -43.90604581	          8.31142010	          0.40016877	         -2.32037909	         82.20739765	        -11.60581311	         31.98447884	         89.50633292	         -5.65466089	
